# File created by Blade
# Date/Time:  Tue Jan 27 18:35:03 2015
# Frame Rate: 120.000 fps
#------------------------------------------------------
:FULLY-SPECIFIED
:DEGREES
1421
root -3.733196 31.533490 -2.186195 -12.715052 13.333208 -15.351521
Spine 13.822266 -14.069659 -2.781959
Head 11.383499 -3.230867 22.296537
LeftShoulder -12.379390 11.047420 18.750209
LeftArm 31.655279 -18.574436 -75.572517
LeftForeArm 127.313410 -0.000000 135.075994
LeftHand 9.642511 0.000000 -6.826302
LeftHandThumb1 -26.253704 0.000000 33.147579
RightShoulder -16.927085 -9.735961 -4.293604
RightArm 2.342292 -35.008369 83.825754
RightForeArm -23.603139 -0.000000 29.534930
RightHand -13.849654 -0.000000 12.041850
RightHandThumb1 -24.326973 -0.000000 -32.862282
LeftUpLeg -4.440133 4.795426 9.345567
LeftLeg 35.768554 -0.000000 -0.000000
LeftFoot -31.260419 8.724091 -18.542746
LeftToeBase 10.549332 -0.000000 -0.000000
RightUpLeg -87.827653 4.230970 25.188043
RightLeg 85.028703 -0.000000 -0.000000
RightFoot 2.339293 -15.645040 16.318790
RightToeBase 4.348083 -0.000000 -0.000000
1422
root -3.736038 31.535224 -2.173356 -12.759707 13.191672 -15.352076
Spine 13.804626 -13.925973 -2.799859
Head 11.474296 -3.286696 22.352007
LeftShoulder -12.413938 11.120692 18.756888
LeftArm 31.681269 -18.781663 -75.845152
LeftForeArm 127.308106 -0.000000 135.035697
LeftHand 9.629681 -0.000000 -6.650518
LeftHandThumb1 -26.253704 0.000000 33.147579
RightShoulder -16.960992 -9.812033 -4.237196
RightArm 2.331981 -35.062776 83.830482
RightForeArm -23.626001 -0.000000 29.581561
RightHand -13.817333 -0.000000 12.005014
RightHandThumb1 -24.326973 -0.000000 -32.862282
LeftUpLeg -4.311619 5.062535 9.435531
LeftLeg 35.734253 -0.000000 -0.000000
LeftFoot -31.243017 8.589669 -18.481086
LeftToeBase 10.538070 -0.000000 -0.000000
RightUpLeg -87.806113 4.324348 25.240873
RightLeg 85.068435 -0.000000 -0.000000
RightFoot 2.452405 -15.713727 16.118621
RightToeBase 4.117633 -0.000000 -0.000000
1423
root -3.729852 31.534763 -2.166155 -12.809310 13.143753 -15.323594
Spine 13.823834 -13.880883 -2.844757
Head 11.534900 -3.302332 22.364828
LeftShoulder -12.450567 11.174234 18.724712
LeftArm 31.723819 -19.022511 -76.076463
LeftForeArm 127.258859 -0.000000 135.022628
LeftHand 9.875756 -0.000000 -6.594130
LeftHandThumb1 -26.253704 0.000000 33.147579
RightShoulder -16.974668 -9.865335 -4.199200
RightArm 2.328604 -35.114472 83.820292
RightForeArm -23.560459 -0.000000 29.631188
RightHand -13.807163 -0.000000 11.937092
RightHandThumb1 -24.326973 -0.000000 -32.862282
LeftUpLeg -4.211577 5.193698 9.443461
LeftLeg 35.712995 -0.000000 -0.000000
LeftFoot -31.247762 8.443817 -18.493381
LeftToeBase 10.570459 -0.000000 -0.000000
RightUpLeg -87.847723 4.289359 25.273076
RightLeg 85.159984 -0.000000 -0.000000
RightFoot 2.447378 -15.755260 16.182137
RightToeBase 4.194177 -0.000000 -0.000000
1424
root -3.720683 31.532729 -2.160007 -12.854636 13.136327 -15.286319
Spine 13.834807 -13.898276 -2.887306
Head 11.617743 -3.300748 22.314930
LeftShoulder -12.493424 11.207933 18.635283
LeftArm 31.749592 -19.283158 -76.229811
LeftForeArm 127.115894 -0.000000 135.018766
LeftHand 9.835843 -0.000000 -6.323551
LeftHandThumb1 -26.253704 0.000000 33.147579
RightShoulder -16.939126 -9.902106 -4.195878
RightArm 2.279046 -35.102584 83.850198
RightForeArm -23.623525 -0.000000 29.716138
RightHand -13.853097 -0.000000 12.027241
RightHandThumb1 -24.326973 -0.000000 -32.862282
LeftUpLeg -4.128511 5.264670 9.419302
LeftLeg 35.699446 -0.000000 -0.000000
LeftFoot -31.236202 8.370316 -18.446017
LeftToeBase 10.547771 -0.000000 -0.000000
RightUpLeg -87.923290 4.211190 25.306154
RightLeg 85.289635 -0.000000 -0.000000
RightFoot 2.414649 -15.812714 16.286713
RightToeBase 4.224703 -0.000000 -0.000000
1425
root -3.710782 31.529716 -2.154244 -12.897413 13.133379 -15.236116
Spine 13.861788 -13.864643 -2.946924
Head 11.629892 -3.330685 22.310195
LeftShoulder -12.517367 11.200149 18.597438
LeftArm 31.776643 -19.481037 -76.395937
LeftForeArm 127.024357 -0.000000 135.012122
LeftHand 9.929257 -0.000000 -6.022560
LeftHandThumb1 -26.253704 0.000000 33.147579
RightShoulder -16.976683 -9.957700 -4.164017
RightArm 2.294664 -35.156811 83.823213
RightForeArm -23.606578 -0.000000 29.772996
RightHand -13.844324 -0.000000 12.068593
RightHandThumb1 -24.326973 -0.000000 -32.862282
LeftUpLeg -4.051893 5.334315 9.378110
LeftLeg 35.697836 -0.000000 -0.000000
LeftFoot -31.242025 8.295403 -18.431938
LeftToeBase 10.587936 -0.000000 -0.000000
RightUpLeg -88.008168 4.131305 25.330346
RightLeg 85.436851 -0.000000 -0.000000
RightFoot 2.383587 -15.865442 16.285750
RightToeBase 4.199132 -0.000000 -0.000000
1426
root -3.699725 31.526513 -2.147154 -12.953407 13.129336 -15.184112
Spine 13.894562 -13.829356 -3.002825
Head 11.658902 -3.351452 22.287329
LeftShoulder -12.538066 11.209796 18.546431
LeftArm 31.825734 -19.640236 -76.523755
LeftForeArm 126.885263 -0.000000 135.025460
LeftHand 10.013671 -0.000000 -5.962792
LeftHandThumb1 -26.253704 0.000000 33.147579
RightShoulder -16.989687 -10.000297 -4.144436
RightArm 2.274795 -35.190181 83.824294
RightForeArm -23.599449 -0.000000 29.824213
RightHand -13.838913 -0.000000 12.031726
RightHandThumb1 -24.326973 -0.000000 -32.862282
LeftUpLeg -3.955899 5.376771 9.330276
LeftLeg 35.685558 -0.000000 -0.000000
LeftFoot -31.260646 8.256039 -18.443581
LeftToeBase 10.613307 -0.000000 -0.000000
RightUpLeg -88.102209 4.029602 25.379190
RightLeg 85.625725 -0.000000 -0.000000
RightFoot 2.355303 -15.907049 16.239784
RightToeBase 4.246028 -0.000000 -0.000000
1427
root -3.691237 31.523514 -2.139636 -13.014126 13.129585 -15.166239
Spine 13.927687 -13.827822 -3.029662
Head 11.688186 -3.345480 22.258101
LeftShoulder -12.577784 11.221112 18.493832
LeftArm 31.865936 -19.775578 -76.606308
LeftForeArm 126.820400 -0.000000 135.040181
LeftHand 10.108108 -0.000000 -5.850039
LeftHandThumb1 -26.253704 0.000000 33.147579
RightShoulder -16.961849 -10.001204 -4.145443
RightArm 2.196085 -35.160205 83.860205
RightForeArm -23.649960 0.000000 29.877539
RightHand -13.821485 -0.000000 12.111290
RightHandThumb1 -24.326973 -0.000000 -32.862282
LeftUpLeg -3.874322 5.427009 9.319586
LeftLeg 35.695443 -0.000000 -0.000000
LeftFoot -31.260216 8.230580 -18.376651
LeftToeBase 10.559981 -0.000000 -0.000000
RightUpLeg -88.196685 3.920408 25.480666
RightLeg 85.824290 -0.000000 -0.000000
RightFoot 2.274082 -15.961143 16.315522
RightToeBase 4.314005 -0.000000 -0.000000
1428
root -3.680524 31.519388 -2.133684 -13.070159 13.158688 -15.136072
Spine 13.967923 -13.832134 -3.065458
Head 11.688600 -3.343929 22.229174
LeftShoulder -12.600690 11.207551 18.451063
LeftArm 31.883455 -19.876336 -76.648961
LeftForeArm 126.771422 -0.000000 135.063898
LeftHand 10.172507 -0.000000 -5.808402
LeftHandThumb1 -26.253704 0.000000 33.147579
RightShoulder -16.965312 -10.026916 -4.138501
RightArm 2.188648 -35.199909 83.856539
RightForeArm -23.603312 -0.000000 29.894984
RightHand -13.829089 -0.000000 12.076159
RightHandThumb1 -24.326973 -0.000000 -32.862282
LeftUpLeg -3.815559 5.406229 9.278389
LeftLeg 35.721252 -0.000000 -0.000000
LeftFoot -31.266011 8.220405 -18.374333
LeftToeBase 10.511972 -0.000000 -0.000000
RightUpLeg -88.316311 3.776257 25.593776
RightLeg 86.043105 -0.000000 -0.000000
RightFoot 2.250925 -16.060354 16.241878
RightToeBase 4.279274 -0.000000 -0.000000
1429
root -3.671179 31.513625 -2.125233 -13.090835 13.260623 -15.086580
Spine 13.959113 -13.899764 -3.144386
Head 11.716520 -3.345857 22.219795
LeftShoulder -12.632368 11.226135 18.443999
LeftArm 31.914671 -19.932504 -76.700472
LeftForeArm 126.648868 -0.000000 135.078683
LeftHand 10.200012 0.000000 -5.735796
LeftHandThumb1 -26.253704 0.000000 33.147579
RightShoulder -16.963238 -10.053001 -4.132513
RightArm 2.143557 -35.230551 83.881615
RightForeArm -23.568220 -0.000000 29.909984
RightHand -13.815528 -0.000000 12.080130
RightHandThumb1 -24.326973 -0.000000 -32.862282
LeftUpLeg -3.805090 5.315859 9.194156
LeftLeg 35.751953 -0.000000 -0.000000
LeftFoot -31.285519 8.223706 -18.383463
LeftToeBase 10.513928 -0.000000 -0.000000
RightUpLeg -88.522810 3.598635 25.664348
RightLeg 86.329092 -0.000000 -0.000000
RightFoot 2.113858 -16.147026 16.390325
RightToeBase 4.348758 -0.000000 -0.000000
1430
root -3.660918 31.508859 -2.122271 -13.133988 13.248925 -15.086453
Spine 13.984574 -13.872764 -3.122747
Head 11.701321 -3.314261 22.180251
LeftShoulder -12.645841 11.204002 18.402851
LeftArm 31.922569 -19.975802 -76.671367
LeftForeArm 126.563493 -0.000000 135.114764
LeftHand 10.227366 -0.000000 -5.754648
LeftHandThumb1 -26.253704 0.000000 33.147579
RightShoulder -16.949454 -10.054109 -4.148749
RightArm 2.128721 -35.246318 83.891468
RightForeArm -23.489999 0.000000 29.879937
RightHand -13.738989 -0.000000 12.007518
RightHandThumb1 -24.326973 -0.000000 -32.862282
LeftUpLeg -3.768165 5.308321 9.175338
LeftLeg 35.792196 -0.000000 -0.000000
LeftFoot -31.330525 8.263140 -18.387846
LeftToeBase 10.477717 -0.000000 -0.000000
RightUpLeg -88.651408 3.488201 25.815900
RightLeg 86.548852 -0.000000 -0.000000
RightFoot 2.077424 -16.214160 16.480647
RightToeBase 4.500936 -0.000000 -0.000000
1431
root -3.651758 31.503707 -2.117460 -13.168365 13.260863 -15.101898
Spine 13.988185 -13.859663 -3.086342
Head 11.689947 -3.301465 22.150257
LeftShoulder -12.642626 11.195129 18.384412
LeftArm 31.920007 -19.987250 -76.615212
LeftForeArm 126.497659 -0.000000 135.146826
LeftHand 10.269403 -0.000000 -5.774360
LeftHandThumb1 -26.253704 0.000000 33.147579
RightShoulder -16.952000 -10.080534 -4.156964
RightArm 2.143570 -35.251986 83.880222
RightForeArm -23.539702 -0.000000 29.877224
RightHand -13.824945 -0.000000 12.118436
RightHandThumb1 -24.326973 -0.000000 -32.862282
LeftUpLeg -3.754355 5.256602 9.165416
LeftLeg 35.846666 -0.000000 -0.000000
LeftFoot -31.390352 8.298352 -18.404239
LeftToeBase 10.524198 -0.000000 -0.000000
RightUpLeg -88.820465 3.367579 25.997524
RightLeg 86.815013 -0.000000 -0.000000
RightFoot 2.038687 -16.320437 16.671277
RightToeBase 4.493455 -0.000000 -0.000000
1432
root -3.642827 31.498986 -2.111147 -13.218063 13.286574 -15.113364
Spine 14.008490 -13.858353 -3.068932
Head 11.678496 -3.300973 22.130692
LeftShoulder -12.649566 11.197051 18.384652
LeftArm 31.934209 -19.941370 -76.614078
LeftForeArm 126.466425 -0.000000 135.160991
LeftHand 10.237557 -0.000000 -5.783743
LeftHandThumb1 -26.253704 0.000000 33.147579
RightShoulder -16.937906 -10.079468 -4.170632
RightArm 2.129235 -35.266937 83.892504
RightForeArm -23.539797 -0.000000 29.828198
RightHand -13.812303 -0.000000 12.118119
RightHandThumb1 -24.326973 -0.000000 -32.862282
LeftUpLeg -3.718021 5.199370 9.147481
LeftLeg 35.888243 -0.000000 -0.000000
LeftFoot -31.422881 8.380213 -18.350010
LeftToeBase 10.472875 -0.000000 -0.000000
RightUpLeg -88.981536 3.229440 26.160947
RightLeg 87.099000 -0.000000 -0.000000
RightFoot 1.997702 -16.401264 16.708345
RightToeBase 4.403237 -0.000000 -0.000000
